<svg width="247" height="106" viewBox="0 0 247 106" fill="none" xmlns="http://www.w3.org/2000/svg">
<path d="M31.248 33.56H41.048L37.744 50.08C35.728 51.6107 33.376 52.7867 30.688 53.608C28.0373 54.392 25.2373 54.784 22.288 54.784C18.3307 54.784 14.8587 54.0747 11.872 52.656C8.92267 51.2 6.62667 49.1653 4.984 46.552C3.37867 43.9387 2.576 40.9333 2.576 37.536C2.576 33.0187 3.62133 28.9867 5.712 25.44C7.80267 21.856 10.7333 19.056 14.504 17.04C18.2747 15.024 22.6053 14.016 27.496 14.016C35.2613 14.016 40.9547 16.424 44.576 21.24L36.624 27.512C35.3547 25.944 33.9547 24.8427 32.424 24.208C30.8933 23.536 29.0827 23.2 26.992 23.2C24.3413 23.2 22.008 23.7973 19.992 24.992C18.0133 26.1493 16.4827 27.7547 15.4 29.808C14.3173 31.8613 13.776 34.1947 13.776 36.808C13.776 39.496 14.6533 41.6427 16.408 43.248C18.1627 44.816 20.6267 45.6 23.8 45.6C25.704 45.6 27.44 45.2827 29.008 44.648L31.248 33.56ZM72.2138 46.384H55.5258L50.9898 54H39.2857L64.4298 14.8H75.3498L84.8138 54H73.7818L72.2138 46.384ZM70.5338 38.208L67.9018 25.496L60.3978 38.208H70.5338ZM141.325 14.8L133.597 54H123.349L127.381 33.336L114.333 50.136H109.461L102.349 33.336L98.2052 54H88.0132L95.8532 14.8H104.869L114.053 37.48L131.861 14.8H141.325ZM158.467 23.368L157.179 29.976H174.595L172.971 38.264H155.499L154.099 45.432H174.651L172.859 54H141.443L149.283 14.8H179.971L178.235 23.368H158.467Z" fill="#1A1A1A"/>
<path d="M128.736 65.8H139.824L133.776 96.208H152.48L150.688 105H120.896L128.736 65.8ZM172.1 74.368L170.812 80.976H188.228L186.604 89.264H169.132L167.732 96.432H188.284L186.492 105H155.076L162.916 65.8H193.604L191.868 74.368H172.1ZM219.085 85.344L229.725 105H217.741L211.805 93.24L201.557 105H188.285L206.933 84.728L196.909 65.8H208.725L214.437 77.056L224.405 65.8H236.949L219.085 85.344Z" fill="#1A1A1A"/>
<g clip-path="url(#clip0_3_22)">
<path d="M233.494 21H233.487C231.569 21 230 22.5687 230 24.5V25.0437L229.65 25.4625L227.15 28.4625L226.7 29H226H225C221.131 29 218 32.1313 218 36V37.5H216.5H214H213.037L212.637 36.6313L210.831 32.7125L210.537 33.45C210.181 34.3375 210 35.2812 210 36.2375V36.5063C210 40.0938 212.912 43.0063 216.5 43.0063H219V41.5063V40.0063H222V41.5063V43.3875L225.619 47H231V46C231 45.45 230.55 45 230 45H228.5H227.7L227.25 44.3312L226.25 42.8312L225.737 42.0625L226.2 41.2563L228 38.1V38C228 36.3438 226.656 35 225 35H224V32H225C228.312 32 231 34.6875 231 38V38.5V38.9L230.8 39.2437L229.262 41.9375L229.3 42H230C232.206 42 234 43.7938 234 46V48.5V50H232.5H225H224.381L223.944 49.5625L220.381 46H216.5C211.256 46 207 41.7437 207 36.5V36.2313C207 34.8938 207.256 33.575 207.75 32.3313L209.106 28.9375L209.481 27.9937L210.5 28H211H211.962L212.362 28.8687L214.962 34.5H215.112C215.837 29.6875 219.987 26 225 26H225.3L227.025 23.925C227.312 20.6125 230.094 18 233.487 18C233.487 18 233.487 18 233.494 18H233.5H239H239.925L240.337 18.8313L240.931 20.0187C244.319 20.2375 247 23.0563 247 26.5V30.5V32H245.5H243.75L242.7 33.4L242.25 34H241.5H235.75L234.794 35.2812L238.231 37.1938L239 37.625V38.5063V40.5063V42.0063H236V40.5063V39.3875L232.994 37.7188C232.95 36.375 232.594 35.1187 232 34.0063L233.8 31.6062L234.25 31H235H240.75H240H239.587L239.294 30.7063L237.587 29H236H235V27H236H238H238.412L238.706 27.2937L240.412 29H244V26.5C244 24.5687 242.431 23 240.5 23H240H239.075L238.662 22.1687L238.075 21H233.5C233.5 21 233.5 21 233.494 21ZM235.5 23.5C235.5 23.2348 235.605 22.9804 235.793 22.7929C235.98 22.6054 236.235 22.5 236.5 22.5C236.765 22.5 237.019 22.6054 237.207 22.7929C237.395 22.9804 237.5 23.2348 237.5 23.5C237.5 23.7652 237.395 24.0196 237.207 24.2071C237.019 24.3946 236.765 24.5 236.5 24.5C236.235 24.5 235.98 24.3946 235.793 24.2071C235.605 24.0196 235.5 23.7652 235.5 23.5Z" fill="#5A5A5A"/>
</g>
<path d="M192 14H201.5L194 54H185L192 14Z" fill="#80ED99"/>
<path d="M108 66H117.5L110 106H101L108 66Z" fill="#FF59F3"/>
<defs>
<clipPath id="clip0_3_22">
<rect width="40" height="32" fill="white" transform="translate(207 18)"/>
</clipPath>
</defs>
</svg>
